.
 
http://www.scenetime.com    -   SceneTime [ We been having it ] !!!


How come you press harder on a remote control when you know the battery is dead? so you better seed to get speed ;)

        Seed back for speed


...................................NFO:.................................................[img]http://leetleech.org/images/24788562276342258337.jpg[/img]




[color=blue]#######################################################################[/color]
[color=#99FF00][b]General:[/b][/color]
[color=blue]#######################################################################[/color]
[b][color=#00FF00]
Complete name                    : Win Win 2011 BRRIP XVID AC3 - SCRON.avi
Format                           : AVI
Format/Info                      : Audio Video Interleave
Format profile                   : OpenDML
Format settings                  : rec
File size                        : 1.22 GiB
Duration                         : 1h 46mn
Overall bit rate                 : 1 645 Kbps


[/color][/b]
[color=blue]#######################################################################[/color]
[color=#FFFF00][b]Video:[/b][/color]
[color=blue]#######################################################################[/color]
[b][color=#00FF00]
ID                               : 0
Format                           : MPEG-4 Visual
Format profile                   : Advanced Simple@L5
Format settings, BVOP            : 2
Format settings, QPel            : No
Format settings, GMC             : No warppoints
Format settings, Matrix          : Default (H.263)
Codec ID                         : XVID
Codec ID/Hint                    : XviD
Duration                         : 1h 46mn
Bit rate                         : 1 192 Kbps
Width                            : 720 pixels
Height                           : 384 pixels
Display aspect ratio             : 1.875
Frame rate                       : 23.976 fps
Color space                      : YUV
Chroma subsampling               : 4:2:0
Bit depth                        : 8 bits
Scan type                        : Progressive
Compression mode                 : Lossy
Bits/(Pixel*Frame)               : 0.180
Stream size                      : 904 MiB (72%)

[/color][/b]

[color=blue]#######################################################################[/color]
[color=#0000FF][b]Audio 1:[/b][/color]
[color=blue]#######################################################################[/color]
[b][color=#00FF00]
ID                               : 1
Format                           : AC-3
Format/Info                      : Audio Coding 3
Mode extension                   : CM (complete main)
Codec ID                         : 2000
Duration                         : 1h 46mn
Bit rate mode                    : Constant
Bit rate                         : 448 Kbps
Channel(s)                       : 6 channels
Channel positions                : Front: L C R, Side: L R, LFE
Sampling rate                    : 48.0 KHz
Bit depth                        : 16 bits
Compression mode                 : Lossy
Stream size                      : 340 MiB (27%)
Alignment                        : Aligned on interleaves
Interleave, duration             : 64 ms (1.53 video frames)
Interleave, preload duration     : 192 ms 
[/color][/b]


[color=blue]#######################################################################[/color]
[color=red][b]Cast:[/b][/color]
[color=blue]#######################################################################[/color]
[color=red]
Paul Giamatti	Mike Flaherty 
Amy Ryan 	Jackie Flaherty 
Bobby Cannavale   Terry Delfino  
Jeffrey Tambor   Stephen Vigman 
Burt Young      Leo Poplar 
Melanie Lynskey    Cindy 
Alex Shaffer    Kyle 
Margo Martindale   Eleanor  
David W. Thompson     Stemler (as David Thompson)
Mike Diliello 	Jimmy Reed 
Nina Arianda 	Shelly 
Marcia Haufrecht    Gina Flaherty 
Sharon Wilkins 	Judge Lee 
Clare Foley    Abby  
Penelope Kindred    Stella [/color]

[color=#FFFF00]
SOURCE
Video : Win.Win.2011.BluRay.720p.DTS.x264-CHD
Audio : Win.Win.2011.BluRay.720p.DTS.x264-CHD

IMDB : http://www.imdb.com/title/tt1606392/ [/color]


[b][size=2][color=#00CC00]SCR0N is looking for silver supplier,cammers,syncers,Audio and anymore stuff.....
If yall got anything to offer...holler us at scron@hushmail.com[/b][/size][/color] 


SCREENS:

[img]http://leetleech.org/images/17441541304872876801.jpg[/img]
[img]http://leetleech.org/images/91226054163847490752.jpg[/img]
[img]http://leetleech.org/images/86367006224003800475.jpg[/img]
[img]http://leetleech.org/images/57976950882712449556.jpg[/img]
[img]http://leetleech.org/images/71473700763125994094.jpg[/img]
[img]http://leetleech.org/images/71488134093614225265.jpg[/img]
[img]http://leetleech.org/images/70324238640057980056.jpg[/img]